<?xml version="1.0" standalone="no"?>
<!DOCTYPE svg PUBLIC "-//W3C//DTD SVG 1.1//EN" "http://www.w3.org/Graphics/SVG/1.1/DTD/svg11.dtd" >
<svg xmlns="http://www.w3.org/2000/svg">
<metadata></metadata>
<defs>
<font id="gumgum_iconsregular" horiz-adv-x="489" >
<font-face units-per-em="1000" ascent="750" descent="-250" />
<missing-glyph horiz-adv-x="500" />
<glyph horiz-adv-x="0" />
<glyph horiz-adv-x="0" />
<glyph unicode=" "  horiz-adv-x="500" />
<glyph unicode="&#x09;" horiz-adv-x="500" />
<glyph unicode="&#xa0;" horiz-adv-x="500" />
<glyph unicode="0" horiz-adv-x="490" d="M412 14q5 -5 0 -10q-1 -2 -5 -2t-5 2l-195 195l-195 -195q-1 -2 -5 -2t-5 2q-5 5 0 10l195 195l-195 195q-5 5 0 10q5 3 10 0l195 -195l195 195q5 3 10 0q5 -5 0 -10l-195 -195z" />
<glyph unicode="1" horiz-adv-x="684" d="M201 2q-3 0 -4 2l-195 194q-5 5 0 10t10 0l189 -189l396 395q4 4 9 0q6 -6 0 -10l-400 -400q-1 -2 -5 -2z" />
<glyph unicode="2" d="M407 -1h-400q-7 0 -7 7v400q0 7 7 7h400q7 0 7 -7v-400q0 -7 -7 -7zM14 13h386v386h-386v-386z" />
<glyph unicode="3" horiz-adv-x="533" d="M455 363q6 -4 0 -10l-242 -241q-1 -2 -5 -2q-3 0 -5 2l-117 117q-5 5 0 10t10 0l112 -112l237 236q5 5 10 0zM407 136q7 0 7 -7v-122q0 -7 -7 -7h-400q-7 0 -7 7v400q0 7 7 7h294q7 0 7 -7t-7 -7h-287v-386h386v115q0 7 7 7z" />
<glyph unicode="4" horiz-adv-x="456" d="M381 374v-367q0 -7 -7 -7h-367q-7 0 -7 7v500q0 7 7 7h233h1h1h1h1v-1h1v-1l134 -133v-1h1v-1v-1v-1h1v-1zM247 381h110l-110 110v-110zM367 367h-127q-7 0 -7 7v126h-219v-486h353v353zM274 114q7 0 7 -7t-7 -7h-167q-7 0 -7 7t7 7h167zM100 174q0 7 7 7h167q7 0 7 -7 t-7 -7h-167q-7 0 -7 7z" />
<glyph unicode="5" horiz-adv-x="527" d="M385 3q-34 0 -58 24l-239 239q-13 15 -13 32q0 18 13 31q12 13 32 13q19 0 31 -13l186 -185q6 -6 0 -10q-5 -5 -10 0l-186 185q-9 9 -21 9q-13 0 -22 -9q-9 -8 -9 -21t9 -22l239 -239q20 -20 48 -20t48 20t20 48.5t-20 48.5l-239 239q-15 15 -34.5 23t-40 8t-40 -8 t-34.5 -23q-31 -31 -31 -75t31 -75l186 -186q4 -4 0 -10q-6 -4 -10 0l-186 186q-35 35 -35 85q0 24 9 45.5t26 38.5q18 18 40 26.5t44.5 8.5t44.5 -8.5t40 -26.5l239 -238q24 -24 24 -58.5t-24 -58.5t-58 -24z" />
<glyph unicode="6" horiz-adv-x="639" d="M557 401h-550q-7 0 -7 7t7 7h550q7 0 7 -7t-7 -7zM557 201h-550q-7 0 -7 7t7 7h550q7 0 7 -7t-7 -7zM557 1h-550q-7 0 -7 7t7 7h550q7 0 7 -7t-7 -7z" />
<glyph unicode="7" horiz-adv-x="340" d="M7 3q-3 0 -5 2q-5 5 0 10l245 245l-245 245q-5 5 0 10t10 0l250 -250q5 -5 0 -10l-250 -250q-2 -2 -5 -2z" />
<glyph unicode="8" horiz-adv-x="340" d="M257 5q-3 0 -5 2l-250 250q-5 5 0 10l250 250q5 5 10 0t0 -10l-245 -245l245 -245q5 -5 0 -10q-2 -2 -5 -2z" />
<glyph unicode="9" horiz-adv-x="590" d="M0 137q0 3 2 5l250 250q5 5 10 0l250 -250q5 -5 0 -10t-10 0l-245 245l-245 -245q-5 -5 -10 0q-2 4 -2 5z" />
<glyph unicode=":" horiz-adv-x="590" d="M0 387q0 1 2 5q5 5 10 0l245 -245l245 245q5 5 10 0t0 -10l-250 -250q-5 -5 -10 0l-250 250q-2 2 -2 5z" />
<glyph unicode=";" horiz-adv-x="422" d="M345 345q2 -2 2 -5v-334q0 -7 -7 -7h-333q-7 0 -7 7v334q0 1 2 5l167 166q4 6 10 0zM333 337l-159 160l-160 -160v-324h319v324zM274 80q7 0 7 -7t-7 -7h-200q-7 0 -7 7t7 7h200zM67 140q0 7 7 7h200q7 0 7 -7t-7 -7h-200q-7 0 -7 7zM133 340q0 17 12 28.5t29 11.5 t28.5 -11.5t11.5 -28.5t-11.5 -29t-28.5 -12t-29 12t-12 29zM200 340q0 11 -7.5 18.5t-18.5 7.5t-19 -7.5t-8 -18.5t8 -19t19 -8t18.5 8t7.5 19z" />
<glyph unicode="&#x3c;" horiz-adv-x="580" d="M143 419q7 0 7 -7v-63q0 -7 -7 -7h-94q-7 0 -7 7v63q0 7 7 7h94zM136 405h-80v-49h80v49zM276 419q7 0 7 -7v-63q0 -7 -7 -7h-94q-7 0 -7 7v63q0 7 7 7h94zM269 405h-80v-49h80v49zM143 294q7 0 7 -7v-63q0 -7 -7 -7h-94q-7 0 -7 7v63q0 7 7 7h94zM136 280h-80v-49h80v49 zM276 294q7 0 7 -7v-63q0 -7 -7 -7h-94q-7 0 -7 7v63q0 7 7 7h94zM269 280h-80v-49h80v49zM276 169q7 0 7 -7v-63q0 -7 -7 -7h-94q-7 0 -7 7v63q0 7 7 7h94zM269 155h-80v-49h80v49zM361 217q-7 0 -7 7v63q0 7 7 7h94q7 0 7 -7v-63q0 -7 -7 -7h-94zM368 231h80v49h-80v-49z M361 92q-7 0 -7 7v63q0 7 7 7h94q7 0 7 -7v-63q0 -7 -7 -7h-94zM368 106h80v49h-80v-49zM501 337q3 -7 3.5 -12.5t0.5 -6.5v-312q0 -7 -7 -7h-180h-39h-136q-7 0 -7 7v149h-80v-149q0 -7 -7 -7h-42q-7 0 -7 7v468q0 15 6.5 22.5t12.5 11.5q7 3 12.5 4t6.5 1h249 q15 0 22.5 -6.5t11.5 -13.5q3 -7 3.5 -12.5t0.5 -6.5v-118h142q15 0 22.5 -6t11.5 -13zM325 342v-329h166v305v4q0 2 -1 4.5t-2 4.5q-6 11 -21 11h-142zM311 13v461v4q0 2 -1 4.5t-2 4.5q-6 12 -21 12h-249q-2 0 -4 -1t-4.5 -1.5t-4.5 -1.5q-11 -6 -11 -21v-461h28v149 q0 7 7 7h94q7 0 7 -7v-149h129h32z" />
<glyph unicode="=" horiz-adv-x="526" d="M14 95v-80h368q23 0 39 16t16 39q0 7 7 7t7 -7q0 -29 -20 -49t-49 -20h-375q-7 0 -7 7v500q0 7 7 7h375q29 0 49 -20.5t20 -49.5v-281q0 -29 -20 -49t-49 -20h-368zM94 109v392h-80v-392h80zM437 445q0 23 -16 39.5t-39 16.5h-274v-392h274q23 0 39 16t16 39v281z M194 407q-7 0 -7 7t7 7h157q7 0 7 -7t-7 -7h-157zM351 359q7 0 7 -7t-7 -7h-157q-7 0 -7 7t7 7h157z" />
<glyph unicode="&#x3e;" d="M407 215q7 0 7 -7t-7 -7h-193v-193q0 -7 -7 -7t-7 7v193h-193q-7 0 -7 7t7 7h193v193q0 7 7 7t7 -7v-193h193v0z" />
<glyph unicode="?" horiz-adv-x="491" d="M409 215q7 0 7 -7t-7 -7h-400q-7 0 -7 7t7 7h400v0z" />
<glyph unicode="F" horiz-adv-x="590" d="M108 -1q-2 0 -4 2q-5 3 -3 8l60 186l-158 115q-5 2 -3 7t7 5l196 1l60 186q1 4 6 4q6 0 7 -4l61 -186h195q5 0 7 -5q1 -5 -2 -8l-159 -115l61 -186q1 -5 -2 -8q-5 -2 -9 0l-158 115l-158 -115q-2 -2 -4 -2z" />
<glyph unicode="I" horiz-adv-x="293" d="M155 1h-103v250h-52v86h52v52q0 52 25 82t87 30h69v-86h-43q-25 0 -30 -9t-5 -26v-43h78l-9 -86h-69v-250z" />
<glyph unicode="J" horiz-adv-x="552" d="M492 354q-10 -16 -23 -29t-27 -24v-13q0 -50 -19 -101t-55.5 -92.5t-90 -67.5t-122.5 -26q-43 0 -82 12t-73 33q6 -1 12 -1h12q35 0 67 11.5t58 31.5q-33 1 -58.5 20.5t-35.5 49.5q5 -1 9.5 -1.5t9.5 -0.5q7 0 13.5 1t13.5 3q-35 7 -58 34.5t-23 64.5v1q10 -5 21.5 -8.5 t23.5 -3.5q-20 14 -32 36t-12 48q0 27 13 50q38 -46 91.5 -74t116.5 -31q-1 5 -1.5 11t-0.5 12q0 21 8 39.5t21.5 32t32 21.5t39.5 8q22 0 40.5 -8.5t32.5 -23.5q37 8 65 25q-12 -37 -45 -56q16 2 30 6t28 10z" />
<glyph unicode="K" horiz-adv-x="561" d="M60 499q25 0 42.5 -17.5t17.5 -42.5t-17.5 -42.5t-42.5 -17.5t-42.5 17.5t-17.5 42.5t17.5 42.5t42.5 17.5zM8 333h104v-334h-104v334zM376 342q39 0 63.5 -12.5t38 -34t18.5 -50.5t5 -63v-183h-104v163q0 14 -1 29.5t-6 28.5t-16 21.5t-31 8.5t-32.5 -7t-19 -19 t-8.5 -27.5t-2 -31.5v-166h-104v334h100v-45h1q11 20 35.5 37t62.5 17z" />
<glyph unicode="L" horiz-adv-x="778" d="M699 504q4 -1 4 -6v-487q0 -5 -4 -6q-1 0 -1.5 -0.5t-1.5 -0.5q-2 0 -4 2l-313 209v-190q0 -4 -4 -6t-7 0l-365 243q-3 3 -3 6q0 4 3 6l365 243q3 3 7 1q4 -4 4 -7v-216l313 209q3 2 7 0z" />
<glyph unicode="M" horiz-adv-x="464" d="M382 515q7 0 7 -7v-500q0 -7 -7 -7h-125q-7 0 -7 7v500q0 7 7 7h125zM132 515q7 0 7 -7v-500q0 -7 -7 -7h-125q-7 0 -7 7v500q0 7 7 7h125z" />
<glyph unicode="N" horiz-adv-x="464" d="M7 2q-2 0 -3 1q-4 1 -4 6v500q0 5 4 6q3 2 7 0l375 -250q3 -3 3 -6q0 -5 -3 -6l-375 -250q-1 -1 -4 -1z" />
<glyph unicode="O" horiz-adv-x="778" d="M4 504q3 2 7 0l313 -209v216q0 3 4 7q4 2 7 -1l365 -243q3 -2 3 -6q0 -3 -3 -6l-365 -243q-4 -2 -7 0q-4 2 -4 6v190l-313 -209q-2 -2 -4 -2q-1 0 -1.5 0.5t-1.5 0.5q-4 1 -4 6v487q0 5 4 6z" />
<glyph unicode="P" horiz-adv-x="583" d="M499 50q8 -8 8 -20t-8 -20q-9 -9 -21 -9q-11 0 -20 9l-129 128q-26 -20 -57 -30.5t-66 -10.5q-43 0 -80.5 16t-65.5 44t-44 65.5t-16 80.5q0 42 16 79.5t44 65.5t65.5 44t80.5 16q42 0 79.5 -16t65.5 -44t44 -65.5t16 -79.5q0 -35 -10.5 -66.5t-30.5 -57.5zM14 303 q0 -40 15 -75t41 -61t61 -41t75 -15q33 0 62.5 10.5t54.5 29.5q2 4 7 7t10 8l8 8q8 11 10 13q39 50 39 116q0 39 -15 74t-41 61t-61 41t-74 15q-40 0 -75 -15t-61 -41t-41 -61t-15 -74zM285 310q7 0 7 -7t-7 -7h-72v-73q0 -7 -7 -7t-7 7v73h-73q-7 0 -7 7t7 7h73v72q0 7 7 7 t7 -7v-72h72z" />
<glyph unicode="Q" horiz-adv-x="583" d="M499 50q8 -8 8 -20t-8 -21q-10 -8 -21 -8q-10 0 -20 8l-129 129q-26 -20 -57 -30.5t-66 -10.5q-43 0 -80.5 16t-65.5 44t-44 65.5t-16 79.5q0 43 16 80.5t44 65.5t65.5 44t80.5 16q42 0 79.5 -16t65.5 -44t44 -65.5t16 -80.5q0 -35 -10.5 -66t-30.5 -57zM14 302 q0 -39 15 -74t41 -61t61 -41t75 -15q33 0 62.5 10.5t54.5 29.5q2 4 7 7t10 8l4 4l4 4q7 11 10 12q39 50 39 116q0 40 -15 75t-41 61t-61 41t-74 15q-40 0 -75 -15t-61 -41t-41 -61t-15 -75zM285 309q7 0 7 -7t-7 -7h-159q-7 0 -7 7t7 7h159z" />
<glyph unicode="R" horiz-adv-x="583" d="M499 49q8 -8 8 -20t-8 -21q-10 -8 -21 -8q-10 0 -20 8l-129 129q-26 -20 -57 -30.5t-66 -10.5q-43 0 -80.5 16t-65.5 44t-44 65.5t-16 79.5q0 43 16 80.5t44 65.5t65.5 44t80.5 16q42 0 79.5 -16t65.5 -44t44 -65.5t16 -80.5q0 -35 -10.5 -66t-30.5 -57zM14 301 q0 -39 15 -74t41 -61t61 -41t75 -15q33 0 62.5 10.5t54.5 29.5q2 4 7 7t10 8l4 4l4 4q7 11 10 12q39 50 39 116q0 40 -15 75t-41 61t-61 41t-74 15q-40 0 -75 -15t-61 -41t-41 -61t-15 -75z" />
<glyph unicode="S" horiz-adv-x="833" />
<glyph unicode="T" d="M414 201q-2 -40 -16 -75q-21 -49 -62 -81.5t-92 -41.5h-1q-3 0 -4 -1h-1h-5q-2 -1 -4 -1h-2h-4q-2 -1 -5 -1h-1h-4h-1h-5h-6h-2h-3h-4l-1 1h-5q-38 4 -73 21q-43 23 -72 61v1q-20 26 -31 60l-1 1q-2 8 -4 17t-3 19q-1 1 -1 4v1q0 2 -0.5 5t-0.5 5v1v4v1v5q0 43 16.5 80.5 t44.5 65.5t65.5 44.5t80.5 16.5h6h2h3q1 0 2 -0.5t2 -0.5h1h5q40 -5 73 -22q34 -17 59 -45v61q0 7 7 7t7 -7v-80v-1v-1l-1 -1v-1h-1v-1q-1 0 -1 -1h-1l-1 -1h-1h-1h-80q-7 0 -7 7t7 7h65q-25 28 -57 45q-12 6 -24 10t-25 7q-5 1 -9.5 1.5t-9.5 1.5h-1h-4h-1q-1 1 -4 1h-2h-3 h-5q-40 0 -75 -15.5t-61.5 -41.5t-41.5 -61t-15 -75v-5v-1v-3v-1q0 -2 0.5 -4.5t0.5 -5.5v-5h1q4 -34 19.5 -63t38.5 -51.5t53.5 -36t64.5 -16.5l1 -1h4h2h3h5h4h2h3h1q3 0 5 1h4h1h4l1 1h4q2 0 2.5 0.5t2.5 0.5q33 6 62 22.5t50 41t33.5 55.5t13.5 66v5q0 33 -10 62 q-4 7 4 9q7 2 9 -4q11 -35 11 -67v-5v-1z" />
<glyph unicode="U" d="M14 207q0 -30 9 -58q2 -7 -5 -9h-2q-5 0 -7 5q-9 30 -9 62q0 43 16.5 80.5t44.5 65.5t65.5 44.5t80.5 16.5q50 0 94 -23q34 -17 59 -45v61q0 7 7 7t7 -7v-80v-1v-1l-1 -1v-1h-1v-1q-1 0 -1 -1h-1l-1 -1h-1h-1h-80q-7 0 -7 7t7 7h65q-25 28 -57 45q-42 21 -88 21 q-40 0 -75 -15.5t-61.5 -41.5t-41.5 -61t-15 -75zM403 274q11 -35 11 -67q0 -43 -16.5 -80.5t-44.5 -65.5t-65.5 -44.5t-80.5 -16.5q-48 0 -94 22q-35 19 -59 46v-61q0 -7 -7 -7t-7 7v80v1v1v1h1v1h1v1h1v1h1l1 1h1h1h80q7 0 7 -7t-7 -7h-65q12 -14 26.5 -25.5t30.5 -19.5 q42 -21 88 -21q40 0 75 15t61 41.5t41.5 61.5t15.5 75q0 33 -10 62q-4 7 4 9q7 2 9 -4z" />
<glyph unicode="V" d="M407 0h-80q-7 0 -7 7t7 7h63l-148 148q-5 5 0 10t10 0l148 -148v63q0 7 7 7t7 -7v-80v-1v-1l-1 -1v-1h-1v-1h-1v-1h-1v-1h-1h-1h-1zM172 252q5 -5 0 -10q-2 -2 -5 -2t-5 2l-148 148v-63q0 -7 -7 -7t-7 7v80v1v1v1h1v1h1q0 1 1 1v1h1l1 1h1h1h80q7 0 7 -7t-7 -7h-63z" />
<glyph unicode="W" horiz-adv-x="490" d="M412 14q5 -5 0 -10q-2 -2 -5 -2t-5 2l-148 148v-63q0 -7 -7 -7t-7 7v80q0 3 2 5q1 1 1.5 1t1.5 1h2h80q7 0 7 -7t-7 -7h-63zM167 336q7 0 7 -7v-80q0 -7 -7 -7h-80q-7 0 -7 7t7 7h63l-148 148q-5 5 0 10t10 0l148 -148v63q0 7 7 7z" />
<glyph unicode="Y" horiz-adv-x="295" d="M40 -21h-9t-9 2q-5 1 -15 5l7 16q8 -4 12 -5q8 -2 13 -2q10 0 16 6q5 5 5 14v4q-5 -6 -10 -9q-6 -3 -14 -3q-4 0 -12 2q-8 4 -11 7t-7 11q-3 6 -3 14v1q0 8 3 14q3 7 7 11q3 3 11 7q8 2 12 2q8 0 14 -3q4 -2 10 -8v10h21v-57q0 -20 -10 -29q-3 -4 -13 -8q-10 -2 -18 -2z M42 24q3 0 7 2l6 3q1 2 2 3t2 3t1 6v1q0 5 -1 7t-4 5q-2 2 -6 4q-2 0 -3.5 0.5t-3.5 0.5t-3.5 -0.5t-3.5 -0.5q-4 -2 -6 -4q-3 -3 -3 -5q-2 -4 -2 -7v-1q0 -7 5 -12q7 -5 13 -5zM118 0q-12 0 -19 7q-6 7 -6 20v48h21v-41q0 -8 3 -11q3 -4 9 -4q7 0 10 4q3 3 3 11v41h21v-74 h-21v11q-1 -2 -1.5 -2.5t-1.5 -2.5q-2 -1 -2.5 -2t-2.5 -2q-4 -2 -6 -2q-2 -1 -7 -1zM173 75h21v-11q1 2 2 2.5t2 2.5q1 1 2 1.5t3 2.5t6 2q2 1 7 1q7 0 12 -3q6 -3 9 -9q5 6 10 9q6 3 14 3q12 0 18 -7q7 -7 7 -20v-48h-21v41q0 8 -3 11q-4 4 -10 4t-9 -4q-3 -3 -3 -11v-41 h-21v41q0 8 -3 11q-3 4 -9 4t-10 -4q-3 -3 -3 -11v-41h-21v74zM568 63v24h24v-24h-24z" />
<glyph unicode="Z" horiz-adv-x="425" d="M57 74h21v-57q0 -20 -9 -29q-5 -5 -14 -8q-10 -2 -18 -2h-9t-9 2q-5 1 -15 5l7 16q8 -4 12 -5q8 -2 13 -2q11 0 16 6q5 4 5 14v4q-5 -6 -10 -9q-6 -3 -14 -3q-4 0 -12 2q-8 4 -11 7t-7 11q-3 6 -3 14v1q0 8 3 14q3 7 8 11q4 4 10 7q8 2 12 2q9 0 14 -3q4 -2 10 -8v10z M57 41q0 5 -1 7q-2 4 -4 5q-1 2 -6 4q-2 0 -3.5 0.5t-3.5 0.5t-3.5 -0.5t-3.5 -0.5q-4 -2 -5 -4q-2 -1 -4 -5t-2 -7v-1q0 -7 5 -12q7 -5 13 -5q3 0 7 2q4 1 6 3t4 6q1 2 1 6v1zM137 74h21v-74h-21v11q-1 -2 -2 -2.5t-2 -2.5q-2 -1 -2.5 -2t-2.5 -2q-4 -2 -6 -2q-2 -1 -7 -1 q-12 0 -18 7q-7 7 -7 20v48h21v-41q0 -8 3 -11q3 -4 10 -4q6 0 9 4q4 3 4 11v41zM282 56q1 -3 1 -8v-48h-21v41q0 8 -3 11q-3 4 -9 4t-10 -4q-3 -3 -3 -11v-41h-21v41q0 8 -3 11q-3 4 -9 4t-9 -4q-4 -3 -4 -11v-41h-21v74h21v-11q1 2 2 2.5t2 2.5q2 1 5 4q4 2 6 2q2 1 7 1 q7 0 13 -3q5 -4 8 -9q3 5 10 9q6 3 14 3q7 0 9 -1v-12v-6h7h8zM350 138v-52h-52v52h52zM336 124h-24v-24h24v24z" />
<glyph unicode="[" horiz-adv-x="0" d="M159 0h-159v160h159v-160v0z" />
<glyph unicode="\" horiz-adv-x="576" d="M250 409v-159h160v159h-160zM501 500h-342v-342h342v342z" />
<glyph unicode="a" horiz-adv-x="560" d="M250 155q-39 0 -66.5 27.5t-27.5 66.5q0 19 7.5 36.5t20 30t29.5 20t37 7.5q19 0 36.5 -7.5t30 -20t20 -30t7.5 -36.5q0 -20 -7.5 -37t-20 -29.5t-30 -20t-36.5 -7.5zM250 328q-32 0 -55.5 -23.5t-23.5 -55.5t23.5 -55.5t55.5 -23.5t55.5 23.5t23.5 55.5t-23.5 55.5 t-55.5 23.5zM288 -1h-76q-6 0 -8 7l-7 58q-11 3 -20.5 7.5t-19.5 9.5l-47 -36q-5 -5 -10 0l-54 54q-5 5 0 10l36 47q-5 10 -9.5 19.5t-7.5 20.5l-58 7q-7 2 -7 8v76q0 6 7 8l58 6q3 11 7.5 21t9.5 20l-36 47q-5 5 0 10l54 54q6 4 10 0l47 -36q18 10 40 16l7 59q2 7 8 7h76 q6 0 8 -7l6 -59q22 -6 41 -16l47 36q4 4 10 0l54 -54q4 -6 0 -10l-36 -47q10 -19 16 -41l59 -6q7 -2 7 -8v-76q0 -6 -7 -8l-59 -7q-6 -22 -16 -40l36 -47q4 -4 0 -10l-54 -54q-5 -5 -10 0l-47 36q-10 -5 -20 -9.5t-21 -7.5l-6 -58q-2 -7 -8 -7zM218 14h63l7 57q2 6 6 7 q12 3 23.5 7.5t22.5 11.5q5 2 9 -1l45 -36l44 45l-35 45q-4 5 -1 9q7 11 11.5 22.5t7.5 23.5q1 4 7 6l57 6v63l-57 7q-6 2 -7 6q-3 12 -7.5 23.5t-11.5 22.5q-3 4 1 9l35 45l-44 44l-45 -35q-5 -4 -9 -1q-11 7 -22.5 11.5t-23.5 7.5q-4 1 -6 7l-7 57h-63l-6 -57q-2 -6 -6 -7 q-12 -3 -23.5 -7.5t-22.5 -11.5q-4 -3 -9 1l-45 35l-45 -44l36 -45q3 -4 1 -9q-7 -11 -11.5 -22.5t-7.5 -23.5q-1 -4 -7 -6l-57 -7v-63l57 -6q6 -2 7 -6q3 -12 7.5 -23.5t11.5 -22.5q2 -5 -1 -9l-36 -45l45 -45l45 36q4 3 9 1q11 -7 22.5 -11.5t23.5 -7.5q4 -1 6 -7z" />
<glyph unicode="b" horiz-adv-x="575" d="M133 0h-125q-8 0 -8 8v231q0 7 8 7h125q7 0 7 -7v-231q0 -8 -7 -8zM15 15h110v216h-110v-216zM320 0h-125q-7 0 -7 8v538q0 8 7 8h125q8 0 8 -8v-538q0 -8 -8 -8zM203 15h110v524h-110v-524zM508 0h-125q-8 0 -8 8v423q0 8 8 8h125q7 0 7 -8v-423q0 -8 -7 -8zM390 15h110 v409h-110v-409z" />
<glyph unicode="c" horiz-adv-x="564" d="M90 375q-38 0 -64 26t-26 64t26 64.5t64 26.5t64.5 -26.5t26.5 -64.5t-26.5 -64t-64.5 -26zM90 542q-32 0 -54 -22.5t-22 -54.5t22 -54t54 -22t54.5 22t22.5 54t-22.5 54.5t-54.5 22.5zM132 0q-27 0 -51 10.5t-42 28.5t-28.5 42t-10.5 51t10.5 51t28.5 42t42 28.5 t51 10.5t51 -10.5t42 -28.5t28.5 -42t10.5 -51t-10.5 -51t-28.5 -42t-42 -28.5t-51 -10.5zM132 250q-24 0 -45.5 -9.5t-37.5 -25.5t-25.5 -37.5t-9.5 -45.5t9.5 -45.5t25.5 -37.5t37.5 -25.5t45.5 -9.5t45.5 9.5t37.5 25.5t25.5 37.5t9.5 45.5t-9.5 45.5t-25.5 37.5 t-37.5 25.5t-45.5 9.5zM403 208q-23 0 -43.5 9t-35.5 24t-23.5 35t-8.5 43t8.5 43.5t23.5 35.5t35.5 24t43.5 9t43 -9t35 -24t24 -35.5t9 -43.5t-9 -43t-24 -35t-35 -24t-43 -9zM403 417q-41 0 -69 -28.5t-28 -69.5q0 -20 7.5 -37.5t20.5 -31t31 -21t38 -7.5t37.5 7.5t31 21 t21 31t7.5 37.5t-7.5 38t-21 31.5t-31 21t-37.5 7.5zM99 250q-5 0 -7 6l-9 125q0 8 7 8t7 -7l9 -125q2 -7 -6 -7h-1zM306 351h-3l-133 66q-5 3 -3 10q4 6 10 3l132 -66q6 -4 3 -10q-2 -3 -6 -3zM241 187q-4 0 -6 2q-4 6 1 10l79 63q6 6 10 -1q4 -5 -1 -10l-79 -63 q-1 -1 -4 -1z" />
<glyph unicode="d" horiz-adv-x="720" d="M338 -95q-7 0 -7 7v263q0 7 7 7t7 -7v-263q0 -7 -7 -7zM294 124q-4 0 -5 2q-6 4 0 10l44 44q5 3 10 0q3 -5 0 -10l-44 -44q-2 -2 -5 -2zM382 124q-4 0 -5 2l-44 44q-5 5 0 10q5 3 10 0l44 -44q6 -6 0 -10q-1 -2 -5 -2zM538 -1h-125q-7 0 -7 7t7 7h125q24 0 45.5 9.5 t37.5 25.5t25.5 37.5t9.5 45.5t-9.5 45.5t-25.5 37.5t-37.5 25.5t-45.5 9.5h-1q-4 0 -5 2q-2 2 -2 5q1 5 1 15q0 28 -10.5 52.5t-28.5 42.5t-42.5 28.5t-51.5 10.5q-44 0 -78.5 -25t-48.5 -67q-2 -6 -8 -4q-5 1 -11 1.5t-11 0.5q-38 0 -67 -25.5t-34 -63.5q0 -2 -3 -5 q-1 -1 -5 -1q-5 1 -16 1q-21 0 -39.5 -8t-32.5 -22t-22 -32.5t-8 -39.5q0 -39 25 -67q25 -29 63 -34q1 -1 3 -1h152q7 0 7 -7t-7 -7h-156q-4 0 -5 1q-41 8 -67 38q-29 34 -29 77q0 24 9 45t25 37t37 25t45 9h11q8 41 40 67.5t74 26.5h9.5t9.5 -1q16 43 53.5 69t84.5 26 q30 0 57 -11.5t47 -31.5t31.5 -47t11.5 -58v-9q26 -1 49 -12t40 -28.5t26.5 -41t9.5 -49.5q0 -27 -10.5 -51t-28.5 -42t-42 -28.5t-51 -10.5z" />
<glyph unicode="e" horiz-adv-x="704" d="M329 -105q-7 0 -7 7v256q0 7 7 7t7 -7v-256q0 -7 -7 -7zM329 -105q-1 0 -5 2q-3 5 0 10l44 43q2 2 4.5 2t4.5 -2q5 -5 0 -10l-43 -43q-2 -2 -5 -2zM329 -105q-1 0 -5 2l-43 43q-3 5 0 10q6 6 10 0l43 -43q5 -5 0 -10q-2 -2 -5 -2zM525 -1h-122q-7 0 -7 7t7 7h122 q24 0 44.5 9t36.5 25t25 36.5t9 44.5t-9 44.5t-25 36.5t-36.5 25t-44.5 9h-1q-3 0 -5 2t-2 6q1 4 1 14q0 27 -10.5 50.5t-28 41.5t-41 28t-50.5 10q-42 0 -76 -24.5t-48 -64.5q-2 -6 -8 -4q-5 1 -10.5 1.5t-10.5 0.5q-37 0 -65 -24.5t-33 -62.5q-1 -2 -3 -4t-5 -2 q-5 1 -15 1q-42 0 -71 -28.5t-29 -70.5q0 -38 25 -66q24 -28 60 -33q2 0 3 -1h149q7 0 7 -7t-7 -7h-153q-2 0 -4 2q-40 6 -66 37q-28 33 -28 75q0 23 9 43.5t24.5 36t36 24.5t44.5 9h10q8 40 39 66t72 26q5 0 9 -0.5t9 -1.5q16 42 53 67.5t82 25.5q30 0 56 -11.5t45.5 -31 t31 -45.5t11.5 -56v-8q25 -2 47.5 -12.5t39 -27.5t26 -40t9.5 -49q0 -27 -10 -50.5t-27.5 -41t-41 -27.5t-50.5 -10z" />
<glyph unicode="f" horiz-adv-x="590" d="M108 1q-2 0 -4 2q-5 3 -3 8l60 186l-158 115q-5 2 -3 7t7 5l196 1l60 186q1 4 6 4q6 0 7 -4l61 -186h195q5 0 7 -5q1 -5 -2 -8l-159 -115l61 -186q1 -5 -2 -8q-5 -2 -9 0l-158 115l-158 -115q-2 -2 -4 -2zM29 310l145 -105q3 -4 2 -8l-55 -170l145 105q4 4 8 0l145 -105 l-55 171q-2 5 2 7l145 106h-179q-5 0 -7 5l-56 170l-55 -171q-1 -4 -6 -4z" />
<glyph unicode="g" horiz-adv-x="590" d="M539 324q1 -5 -2 -8l-159 -115l61 -186q1 -5 -2 -8q-5 -2 -9 0l-158 115l-158 -115q-2 -2 -4 -2t-4 2q-5 3 -3 8l60 186l-158 115q-5 2 -3 7t7 5l196 1l60 186q1 4 6 4q6 0 7 -4l61 -186h195q5 0 7 -5zM511 315h-179q-5 0 -7 5l-56 170l1 -352q2 0 4 -2l145 -105l-55 171 q-2 5 2 7z" />
<glyph unicode="h" horiz-adv-x="704" d="M532 259q25 -2 47.5 -12.5t39 -27.5t26 -40t9.5 -49q0 -27 -10 -50.5t-27.5 -41t-41 -27.5t-50.5 -10h-94h-28h-305q-2 0 -4 2q-40 6 -66 37q-28 33 -28 75q0 23 9 43.5t24.5 36t36 24.5t44.5 9h10q8 40 39 66t72 26q5 0 9 -0.5t9 -1.5q16 42 53 67.5t82 25.5 q30 0 56 -11.5t45.5 -31t31 -45.5t11.5 -56v-8zM525 15q24 0 44.5 9t36.5 25t25 36.5t9 44.5t-9 44.5t-25 36.5t-36.5 25t-44.5 9h-1q-3 0 -5 2t-2 6q1 4 1 14q0 27 -10.5 50.5t-28 41.5t-41 28t-50.5 10q-42 0 -76 -24.5t-48 -64.5q-2 -6 -8 -4q-5 1 -10.5 1.5t-10.5 0.5 q-37 0 -65 -24.5t-33 -62.5q-1 -2 -3 -4t-5 -2q-5 1 -15 1q-42 0 -71 -28.5t-29 -70.5q0 -38 25 -66q24 -28 60 -33q2 0 3 -1h301h28h94z" />
<glyph unicode="i" horiz-adv-x="307" d="M162 -1h-103q-7 0 -7 7v243h-45q-7 0 -7 7v86q0 7 7 7h45v45q0 58 26 87q30 32 93 32h69q7 0 7 -7v-86q0 -7 -7 -7h-43q-20 0 -24 -7q-4 -4 -4 -21v-36h71q3 0 5 -2t2 -6l-9 -86q0 -6 -7 -6h-62v-243q0 -7 -7 -7zM66 13h89v243q0 7 7 7h63l7 72h-70q-3 0 -5 2t-2 5v43 q0 18 6.5 30t35.5 12h36v72h-62q-55 0 -80 -25.5t-25 -79.5v-52q0 -7 -7 -7h-45v-72h45q7 0 7 -7v-243z" />
<glyph unicode="j" horiz-adv-x="567" d="M162 1q-85 0 -159 46q-5 3 -3 9t8 4q5 -1 11 -1h12q58 0 106 31q-29 6 -50.5 25t-31.5 48q0 5 2 7q3 3 6 2q4 -1 7.5 -1h6.5q-26 14 -41.5 39t-15.5 56v1q0 4 3 6q3 3 7 0q10 -5 19 -8q-28 31 -28 74q0 29 14 54q1 3 6 3q3 1 6 -2q36 -45 86.5 -71t107.5 -31q-1 5 -1 15 q0 22 8.5 42t23 34.5t34 23t42.5 8.5q21 0 41 -8t35 -23q30 6 58 23q5 2 8 -1q3 -4 2 -8q-8 -24 -25 -41q8 2 15 4.5t14 5.5q5 2 9 -2t0 -8q-20 -31 -49 -52v-10q0 -54 -20 -105t-56 -93q-39 -45 -92 -69q-57 -27 -126 -27zM36 45q58 -30 126 -30q64 0 120 25q51 25 88 66 q35 39 53.5 88.5t18.5 100.5v13q0 4 3 6q20 15 34 32q-20 -7 -37 -8q-5 -2 -7 4q-3 5 3 9q20 12 33 34q-11 -5 -23 -9t-25 -7q-3 0 -7 2q-27 30 -68 30q-20 0 -37 -7.5t-29.5 -20t-20 -30t-7.5 -36.5q0 -5 0.5 -10.5t1.5 -10.5q1 -3 -1 -7q-4 -2 -6 -2q-60 3 -113.5 29 t-92.5 71q-8 -16 -8 -38q0 -24 10.5 -44.5t30.5 -34.5q5 -2 3 -7t-7 -5q-19 0 -38 8q4 -30 24.5 -53t50.5 -29q6 -2 6 -7t-5 -7q-18 -5 -37 -3q11 -25 33.5 -39.5t50.5 -15.5q4 0 6 -5t-2 -7q-27 -22 -59 -33t-66 -12z" />
<glyph unicode="k" horiz-adv-x="575" d="M119 -1h-104q-7 0 -7 7v334q0 7 7 7h104q7 0 7 -7v-334q0 -7 -7 -7zM22 13h90v320h-90v-320zM67 379q-28 0 -47.5 19.5t-19.5 47.5t19.5 47.5t47.5 19.5t47.5 -19.5t19.5 -47.5t-19.5 -47.5t-47.5 -19.5zM67 499q-22 0 -37.5 -15.5t-15.5 -37.5t15.5 -37.5t37.5 -15.5 t37.5 15.5t15.5 37.5t-15.5 37.5t-37.5 15.5zM508 -1h-104q-7 0 -7 7v163q0 13 -0.5 28t-5.5 28q-10 25 -41 25q-29 0 -42 -18t-13 -60v-166q0 -7 -7 -7h-104q-7 0 -7 7v334q0 7 7 7h100q7 0 7 -7v-25q9 12 26 22q30 19 66 19q77 0 108 -50q12 -20 18 -47.5t6 -69.5v-183 q0 -7 -7 -7zM411 13h90v176q0 34 -4.5 62.5t-17.5 48.5t-36 31t-60 11q-36 0 -59.5 -16.5t-32.5 -34.5q-2 -3 -6 -3h-1q-7 0 -7 7v38h-86v-320h90v159q0 21 2.5 36t9.5 26q16 30 57 30t54 -34q5 -14 6 -30.5t1 -30.5v-156z" />
<glyph unicode="l" horiz-adv-x="778" d="M696 1q-2 0 -4 2l-313 209v-190q0 -4 -4 -6t-7 0l-365 243q-3 3 -3 6q0 4 3 6l365 243q3 3 7 1q4 -4 4 -7v-216l313 209q3 2 7 0q4 -1 4 -6v-487q0 -5 -4 -6q-1 0 -1.5 -0.5t-1.5 -0.5zM372 232q2 0 4 -2l313 -208v460l-313 -209q-4 -4 -7 0q-4 1 -4 6v216l-345 -230 l345 -230v190q0 5 4 6q1 0 1.5 0.5t1.5 0.5z" />
<glyph unicode="m" horiz-adv-x="464" d="M382 515q7 0 7 -7v-500q0 -7 -7 -7h-125q-7 0 -7 7v500q0 7 7 7h125zM375 501h-111v-486h111v486zM132 515q7 0 7 -7v-500q0 -7 -7 -7h-125q-7 0 -7 7v500q0 7 7 7h125zM125 501h-111v-486h111v486z" />
<glyph unicode="n" horiz-adv-x="464" d="M7 3q-2 0 -3 1q-4 1 -4 6v500q0 5 4 6q3 2 7 0l375 -250q3 -3 3 -6q0 -5 -3 -6l-375 -250q-1 -1 -4 -1zM14 497v-474l355 237z" />
<glyph unicode="o" horiz-adv-x="778" d="M7 1q-1 0 -1.5 0.5t-1.5 0.5q-4 1 -4 6v487q0 5 4 6q3 2 7 0l313 -209v216q0 3 4 7q4 2 7 -1l365 -243q3 -2 3 -6q0 -3 -3 -6l-365 -243q-4 -2 -7 0q-4 2 -4 6v190l-313 -209q-2 -2 -4 -2zM331 232q1 0 1.5 -0.5t1.5 -0.5q4 -1 4 -6v-190l345 230l-345 230v-216 q0 -5 -4 -6q-4 -4 -7 0l-313 209v-460l313 208q2 2 4 2z" />
<glyph unicode="&#x25fc;" horiz-adv-x="500" d="M0 0v0v0v0v0z" />
</font>
</defs>
</svg>
